<?xml version="1.0" encoding="UTF-8" standalone="no"?>
<!-- Generator: Adobe Illustrator 19.0.0, SVG Export Plug-In . SVG Version: 6.00 Build 0)  -->

<svg
   version="1.1"
   id="Layer_1"
   x="0px"
   y="0px"
   viewBox="0 0 463 463"
   style="enable-background:new 0 0 463 463;"
   xml:space="preserve"
   sodipodi:docname="diet.svg"
   inkscape:version="1.1.1 (c3084ef, 2021-09-22)"
   xmlns:inkscape="http://www.inkscape.org/namespaces/inkscape"
   xmlns:sodipodi="http://sodipodi.sourceforge.net/DTD/sodipodi-0.dtd"
   xmlns="http://www.w3.org/2000/svg"
   xmlns:svg="http://www.w3.org/2000/svg"><defs
   id="defs41" /><sodipodi:namedview
   id="namedview39"
   pagecolor="#ffffff"
   bordercolor="#666666"
   borderopacity="1.0"
   inkscape:pageshadow="2"
   inkscape:pageopacity="0.0"
   inkscape:pagecheckerboard="0"
   showgrid="false"
   inkscape:zoom="1.1965443"
   inkscape:cx="231.08213"
   inkscape:cy="231.5"
   inkscape:window-width="1296"
   inkscape:window-height="776"
   inkscape:window-x="0"
   inkscape:window-y="25"
   inkscape:window-maximized="0"
   inkscape:current-layer="Layer_1" />
<g
   id="g6"
   transform="matrix(0.54332131,0,0,0.54781214,60.173284,67.908927)"
   style="stroke-width:1.49443;stroke-miterlimit:4;stroke-dasharray:none">
	<g
   id="g4"
   style="stroke-width:1.49443;stroke-miterlimit:4;stroke-dasharray:none">
		<path
   d="m 455.5,288 h -41.221 c -3.084,-15.979 -15.823,-28.56 -31.886,-31.398 -1.01,-5.693 -3.278,-11.1 -6.619,-15.843 9.659,-13.178 12.237,-29.729 6.221,-43.198 -0.753,-1.687 -2.102,-3.036 -3.789,-3.789 -12.547,-5.605 -27.77,-3.75 -40.449,4.339 C 332.011,189.455 322.212,184 311.5,184 c -17.121,0 -31.086,13.733 -31.481,30.76 -4.752,-7.744 -11.667,-14.072 -19.926,-18.066 C 261.954,192.678 263,188.21 263,183.5 263,168.454 252.396,155.837 238.268,152.732 235.163,138.604 222.546,128 207.5,128 c -7.405,0 -14.437,2.588 -20,7.175 -5.563,-4.587 -12.595,-7.175 -20,-7.175 -15.046,0 -27.663,10.604 -30.768,24.732 C 122.604,155.837 112,168.454 112,183.5 c 0,17.369 14.131,31.5 31.5,31.5 8.413,0 16.25,-3.412 21.995,-9.073 2.563,6.648 5.758,15.951 8.497,26.997 -2.661,-0.617 -5.192,-0.925 -7.723,-0.925 -5.795,0 -11.29,1.343 -16.217,3.733 C 141.213,223.405 127.035,216 111.5,216 c -1.424,0 -2.869,0.104 -4.329,0.26 -0.664,-4.336 -2.345,-9.108 -5.814,-13.445 -2.588,-3.235 -7.307,-3.76 -10.542,-1.171 -3.234,2.587 -3.759,7.307 -1.171,10.542 1.067,1.334 1.753,2.731 2.192,4.075 -1.462,-0.156 -2.909,-0.26 -4.335,-0.26 C 61.309,216 40,237.309 40,263.5 c 0,8.829 2.389,17.227 6.778,24.5 H 7.5 c -4.142,0 -7.5,3.358 -7.5,7.5 0,4.142 3.358,7.5 7.5,7.5 h 60.25 l 14.55,19.4 c 5.917,7.89 15.338,12.6 25.2,12.6 h 248 c 9.862,0 19.283,-4.71 25.2,-12.6 L 395.25,303 h 60.25 c 4.142,0 7.5,-3.358 7.5,-7.5 0,-4.142 -3.358,-7.5 -7.5,-7.5 z M 339.501,215.839 c 8.479,-8.48 20.32,-12.095 29.808,-9.381 2.716,9.487 -0.9,21.329 -9.379,29.809 -5.918,5.918 -13.472,9.456 -20.721,10.138 l 8.304,-8.302 c 2.929,-2.929 2.93,-7.678 0.001,-10.607 -2.929,-2.929 -7.678,-2.93 -10.607,-0.001 l -7.322,7.32 c 1.046,-6.703 4.472,-13.532 9.916,-18.976 z M 311.5,199 c 6.285,0 11.967,3.585 14.739,9.095 -2.974,3.448 -5.422,7.19 -7.317,11.094 C 314.076,217.093 308.854,216 303.5,216 c -2.869,0 -5.693,0.324 -8.438,0.934 -0.041,-0.475 -0.062,-0.953 -0.062,-1.434 0,-9.098 7.402,-16.5 16.5,-16.5 z m -43.296,25.301 C 266.647,224.105 265.078,224 263.5,224 c -19.426,0 -35.622,14.098 -38.896,32.599 -1.375,0.242 -2.734,0.563 -4.076,0.951 -3.606,-9.824 -10.902,-17.783 -20.135,-22.076 2.86,-12.131 6.356,-22.371 9.118,-29.54 5.744,5.656 13.578,9.066 21.989,9.066 7.006,0 13.484,-2.302 18.721,-6.185 7.776,2.721 14.179,8.341 17.983,15.486 z m -96.035,-39.365 c -1.817,-2.071 -4.622,-2.978 -7.311,-2.365 -2.686,0.615 -4.819,2.653 -5.555,5.308 -1.975,7.137 -8.475,12.121 -15.803,12.121 -9.098,0 -16.5,-7.402 -16.5,-16.5 0,-9.098 7.402,-16.5 16.5,-16.5 4.142,0 7.5,-3.358 7.5,-7.5 0,-9.098 7.402,-16.5 16.5,-16.5 5.533,0 10.673,2.77 13.75,7.408 1.39,2.095 3.736,3.355 6.25,3.355 2.514,0 4.861,-1.26 6.25,-3.355 3.076,-4.639 8.216,-7.408 13.75,-7.408 9.098,0 16.5,7.402 16.5,16.5 0,4.142 3.358,7.5 7.5,7.5 9.098,0 16.5,7.402 16.5,16.5 0,9.098 -7.402,16.5 -16.5,16.5 -7.328,0 -13.828,-4.984 -15.805,-12.121 -0.736,-2.655 -2.869,-4.693 -5.555,-5.308 -0.556,-0.127 -1.117,-0.189 -1.673,-0.189 -2.132,0 -4.196,0.911 -5.638,2.554 -3.997,4.555 -9.441,7.064 -15.33,7.064 -5.889,0 -11.333,-2.509 -15.33,-7.064 z m 21.127,21.556 c -1.885,5.319 -3.907,11.627 -5.796,18.719 -1.888,-7.092 -3.911,-13.4 -5.796,-18.719 1.905,0.323 3.84,0.508 5.796,0.508 1.955,0 3.89,-0.185 5.796,-0.508 z M 166.269,247 c 1.428,0 2.903,0.187 4.508,0.571 3.135,0.75 6.313,0.75 9.446,0 1.605,-0.384 3.081,-0.571 4.508,-0.571 12.831,0 23.269,10.991 23.269,24.5 0,6.136 -2.19,12.009 -6.077,16.5 H 149.077 C 145.19,283.509 143,277.636 143,271.5 143,257.991 153.438,247 166.269,247 Z M 66.156,288 C 59.042,281.819 55,273.02 55,263.5 55,245.58 69.58,231 87.5,231 c 3.008,0 6.102,0.536 9.738,1.686 1.473,0.466 3.052,0.466 4.524,0 3.636,-1.15 6.73,-1.686 9.738,-1.686 10.755,0 20.557,5.191 26.59,13.807 -6.26,7.035 -10.09,16.41 -10.09,26.693 0,5.757 1.228,11.377 3.511,16.5 z M 368.7,313.4 c -3.1,4.133 -8.034,6.6 -13.2,6.6 h -248 c -5.166,0 -10.101,-2.467 -13.2,-6.6 L 86.5,303 h 290 z M 219.489,288 c 2.147,-4.818 3.348,-10.077 3.484,-15.475 2.719,-1.01 5.582,-1.525 8.527,-1.525 1.989,0 3.897,-0.79 5.303,-2.197 1.407,-1.406 2.197,-3.314 2.197,-5.303 0,-13.509 10.991,-24.5 24.5,-24.5 3.939,0 7.847,1.04 11.614,3.091 3.182,1.733 7.146,0.943 9.421,-1.875 4.73,-5.857 11.642,-9.216 18.964,-9.216 3.875,0 7.637,0.942 11.048,2.721 -0.651,5.156 -0.364,10.311 0.921,15.205 l -9.272,9.27 c -2.929,2.929 -2.93,7.678 -0.001,10.607 1.465,1.465 3.384,2.197 5.304,2.197 1.919,0 3.838,-0.732 5.303,-2.196 l 8.848,-8.845 c 3.579,1.068 7.31,1.602 11.094,1.602 9.683,0 19.685,-3.421 28.216,-9.842 1.969,3.588 3.04,7.634 3.04,11.781 0,4.142 3.358,7.5 7.5,7.5 10.894,0 20.145,7.149 23.321,17 H 219.489 Z"
   id="path2"
   style="stroke-width:1.49443;stroke-miterlimit:4;stroke-dasharray:none" />
	</g>
</g>
<g
   id="g8">
</g>
<g
   id="g10">
</g>
<g
   id="g12">
</g>
<g
   id="g14">
</g>
<g
   id="g16">
</g>
<g
   id="g18">
</g>
<g
   id="g20">
</g>
<g
   id="g22">
</g>
<g
   id="g24">
</g>
<g
   id="g26">
</g>
<g
   id="g28">
</g>
<g
   id="g30">
</g>
<g
   id="g32">
</g>
<g
   id="g34">
</g>
<g
   id="g36">
</g>
</svg>
