<?xml version="1.0" encoding="UTF-8" standalone="no"?>
<!-- Generator: Adobe Illustrator 19.0.0, SVG Export Plug-In . SVG Version: 6.00 Build 0)  -->

<svg
   version="1.1"
   id="Layer_1"
   x="0px"
   y="0px"
   viewBox="0 0 512 512"
   style="enable-background:new 0 0 512 512;"
   xml:space="preserve"
   sodipodi:docname="workouticon.svg"
   inkscape:version="1.1.1 (c3084ef, 2021-09-22)"
   xmlns:inkscape="http://www.inkscape.org/namespaces/inkscape"
   xmlns:sodipodi="http://sodipodi.sourceforge.net/DTD/sodipodi-0.dtd"
   xmlns="http://www.w3.org/2000/svg"
   xmlns:svg="http://www.w3.org/2000/svg"><defs
   id="defs47" /><sodipodi:namedview
   id="namedview45"
   pagecolor="#ffffff"
   bordercolor="#666666"
   borderopacity="1.0"
   inkscape:pageshadow="2"
   inkscape:pageopacity="0.0"
   inkscape:pagecheckerboard="0"
   showgrid="false"
   inkscape:zoom="1.0820312"
   inkscape:cx="320.23106"
   inkscape:cy="256.00001"
   inkscape:window-width="1296"
   inkscape:window-height="776"
   inkscape:window-x="0"
   inkscape:window-y="30"
   inkscape:window-maximized="0"
   inkscape:current-layer="Layer_1" />


<g
   id="g14">
</g>
<g
   id="g16">
</g>
<g
   id="g18">
</g>
<g
   id="g20">
</g>
<g
   id="g22">
</g>
<g
   id="g24">
</g>
<g
   id="g26">
</g>
<g
   id="g28">
</g>
<g
   id="g30">
</g>
<g
   id="g32">
</g>
<g
   id="g34">
</g>
<g
   id="g36">
</g>
<g
   id="g38">
</g>
<g
   id="g40">
</g>
<g
   id="g42">
</g>
<g
   id="g1526"
   transform="matrix(0.34079934,0,0,0.34079934,145.65054,134.23161)"
   style="fill:#ffffff;fill-opacity:1;stroke:#000000;stroke-width:8.91005;stroke-miterlimit:4;stroke-dasharray:none;stroke-opacity:1"><g
     id="g1462"
     style="fill:#ffffff;fill-opacity:1;stroke:#000000;stroke-width:8.91005;stroke-miterlimit:4;stroke-dasharray:none;stroke-opacity:1">
	<g
   id="g1460"
   style="fill:#ffffff;fill-opacity:1;stroke:#000000;stroke-width:8.91005;stroke-miterlimit:4;stroke-dasharray:none;stroke-opacity:1">
		<path
   d="m 483.521,377.225 c 12.202,3.124 24.639,-4.239 27.761,-16.452 3.123,-12.21 -4.242,-24.639 -16.452,-27.761 l -363.166,-88.626 50.44,-49.855 c 0.695,-0.688 1.331,-1.434 1.9,-2.232 l 41.775,-58.544 9.772,5.7 c 0.692,5.666 3.911,10.958 9.222,14.056 9.019,5.26 20.594,2.214 25.854,-6.805 5.26,-9.019 2.214,-20.594 -6.805,-25.854 -5.311,-3.098 -11.501,-3.295 -16.775,-1.107 l -9.111,-5.314 c 1.477,-6.523 -0.967,-13.589 -6.751,-17.718 -6.681,-4.767 -15.615,-4.04 -21.448,1.27 l -8.127,-4.74 c -0.692,-5.666 -3.911,-10.958 -9.222,-14.056 -9.019,-5.26 -20.594,-2.214 -25.854,6.805 -5.26,9.018 -2.214,20.594 6.805,25.854 5.311,3.098 11.501,3.295 16.775,1.107 l 5.973,3.484 -39.092,54.784 -52.322,56.774 c -5.296,5.747 -8.979,12.789 -10.679,20.417 l -18.062,81.097 c -1.159,5.203 -0.974,10.615 0.537,15.728 l 16.53,55.929 H 17.114 C 7.662,401.164 0,408.827 0,418.278 c 0,9.451 7.662,17.114 17.114,17.114 h 98.796 c 11.423,0 19.654,-11.005 16.411,-21.969 l -20.636,-69.76 c 0,0 362.861,88.122 365.323,88.752 12.202,3.124 24.639,-4.239 27.761,-16.452 3.123,-12.21 -4.243,-24.639 -16.452,-27.761 C 247.55,326.617 263.042,330.542 261.325,330.211 l 2.15,-9.272 z"
   id="path1458"
   style="fill:#ffffff;fill-opacity:1;stroke:#000000;stroke-width:8.91005;stroke-miterlimit:4;stroke-dasharray:none;stroke-opacity:1" />
	</g>
</g><g
     id="g1468"
     style="fill:#ffffff;fill-opacity:1;stroke:#000000;stroke-width:8.91005;stroke-miterlimit:4;stroke-dasharray:none;stroke-opacity:1">
	<g
   id="g1466"
   style="fill:#ffffff;fill-opacity:1;stroke:#000000;stroke-width:8.91005;stroke-miterlimit:4;stroke-dasharray:none;stroke-opacity:1">
		<circle
   cx="40.132"
   cy="249.422"
   r="39.604"
   id="circle1464"
   style="fill:#ffffff;fill-opacity:1;stroke:#000000;stroke-width:8.91005;stroke-miterlimit:4;stroke-dasharray:none;stroke-opacity:1" />
	</g>
</g><g
     id="g1470"
     style="fill:#ffffff;fill-opacity:1;stroke:#000000;stroke-width:8.91005;stroke-miterlimit:4;stroke-dasharray:none;stroke-opacity:1">
</g><g
     id="g1472"
     style="fill:#ffffff;fill-opacity:1;stroke:#000000;stroke-width:8.91005;stroke-miterlimit:4;stroke-dasharray:none;stroke-opacity:1">
</g><g
     id="g1474"
     style="fill:#ffffff;fill-opacity:1;stroke:#000000;stroke-width:8.91005;stroke-miterlimit:4;stroke-dasharray:none;stroke-opacity:1">
</g><g
     id="g1476"
     style="fill:#ffffff;fill-opacity:1;stroke:#000000;stroke-width:8.91005;stroke-miterlimit:4;stroke-dasharray:none;stroke-opacity:1">
</g><g
     id="g1478"
     style="fill:#ffffff;fill-opacity:1;stroke:#000000;stroke-width:8.91005;stroke-miterlimit:4;stroke-dasharray:none;stroke-opacity:1">
</g><g
     id="g1480"
     style="fill:#ffffff;fill-opacity:1;stroke:#000000;stroke-width:8.91005;stroke-miterlimit:4;stroke-dasharray:none;stroke-opacity:1">
</g><g
     id="g1482"
     style="fill:#ffffff;fill-opacity:1;stroke:#000000;stroke-width:8.91005;stroke-miterlimit:4;stroke-dasharray:none;stroke-opacity:1">
</g><g
     id="g1484"
     style="fill:#ffffff;fill-opacity:1;stroke:#000000;stroke-width:8.91005;stroke-miterlimit:4;stroke-dasharray:none;stroke-opacity:1">
</g><g
     id="g1486"
     style="fill:#ffffff;fill-opacity:1;stroke:#000000;stroke-width:8.91005;stroke-miterlimit:4;stroke-dasharray:none;stroke-opacity:1">
</g><g
     id="g1488"
     style="fill:#ffffff;fill-opacity:1;stroke:#000000;stroke-width:8.91005;stroke-miterlimit:4;stroke-dasharray:none;stroke-opacity:1">
</g><g
     id="g1490"
     style="fill:#ffffff;fill-opacity:1;stroke:#000000;stroke-width:8.91005;stroke-miterlimit:4;stroke-dasharray:none;stroke-opacity:1">
</g><g
     id="g1492"
     style="fill:#ffffff;fill-opacity:1;stroke:#000000;stroke-width:8.91005;stroke-miterlimit:4;stroke-dasharray:none;stroke-opacity:1">
</g><g
     id="g1494"
     style="fill:#ffffff;fill-opacity:1;stroke:#000000;stroke-width:8.91005;stroke-miterlimit:4;stroke-dasharray:none;stroke-opacity:1">
</g><g
     id="g1496"
     style="fill:#ffffff;fill-opacity:1;stroke:#000000;stroke-width:8.91005;stroke-miterlimit:4;stroke-dasharray:none;stroke-opacity:1">
</g><g
     id="g1498"
     style="fill:#ffffff;fill-opacity:1;stroke:#000000;stroke-width:8.91005;stroke-miterlimit:4;stroke-dasharray:none;stroke-opacity:1">
</g></g></svg>
